<?xml version="1.0" encoding="utf-8"?>
<!DOCTYPE svg PUBLIC "-//W3C//DTD SVG 1.1//EN" "https://www.w3.org/Graphics/SVG/1.1/DTD/svg11.dtd">
<svg version="1.1" xmlns="https://www.w3.org/2000/svg"
  xmlns:xlink="https://www.w3.org/1999/xlink"
  viewBox="0 0 725 360" x="0" y="0">

  <defs>
    <style type="text/css">
      <![CDATA[
        .node {
          fill: white;
          stroke: gray;
          stroke-width: 1;
        }

        .node-label {
          fill: #025167;
          font-size: 9pt;
          font-family: "Helvetica";
        }

        .heavy-label {
          font-weight: bold;
        }

        .bridge {
          stroke: gray;
        }

        .shadow {
          fill: #fafafa;
          stroke: gray;
          stroke-width: .5;
        }
      ]]>
    </style>

    <g id="endpointGroup">
      <rect class="shadow" width="100" height="250" />
      <g transform="translate(50, 250)">
        <line class="bridge" x1="0" x2="50" transform="rotate(45)"/>
        <rect class="shadow" width="25" height="150" transform="translate(25, 25)" />
        <line class="bridge" x1="0" x2="50" transform="rotate(90)"/>
        <rect class="shadow" width="25" height="150" transform="translate(-12.5, 25)" />
        <line class="bridge" x1="0" x2="50" transform="rotate(135)"/>
        <rect class="shadow" width="25" height="150" transform="translate(-50, 25)" />
      </g>
    </g>
  </defs>

  <g id="clienStack" transform="translate(0, 10)">
    <g id="observed" transform="translate(25, 220) rotate(-90)">
      <rect class="node" width="100" height="25"/>
      <text class="node-label" x="50" y="17.5" text-anchor="middle">Observe</text>
    </g>

    <g id="retries" transform="translate(50, 220) rotate(-90)">
      <rect class="node" width="100" height="25"/>
      <text class="node-label" x="50" y="17.5" text-anchor="middle">Retries</text>
    </g>

    <g id="serviceTimeout" transform="translate(75, 220) rotate(-90)">
      <rect class="node" width="100" height="25"/>
      <text class="node-label" x="50" y="17.5" text-anchor="middle">Session Timeout</text>
    </g>

    <g id="refcounted" transform="translate(100, 220) rotate(-90)">
      <rect class="node" width="100" height="25"/>
      <text class="node-label" x="50" y="17.5" text-anchor="middle">Request Draining</text>
    </g>

    <g id="loadbalancer" transform="translate(125, 220) rotate(-90)">
      <rect class="node" width="100" height="100"/>
      <text class="heavy-label node-label" x="50" y="-50" text-anchor="middle"
        transform="rotate(90)">Load Balancer</text>

      <!-- endpoint stack -->
      <g id="endpointStack" transform="translate(50, 100)">
        <line class="bridge" x1="0" x2="150" transform="rotate(45)"/>
        <g id="endpoint2" transform="translate(75, 75)">
          <use xlink:href="#endpointGroup"/>
        </g>

        <line class="bridge" x1="0" x2="75" transform="rotate(90)"/>
        <g id="endpoint1" transform="translate(-50, 75)">
          <g id="monitored" transform="translate(0, 0)">
            <rect class="node" width="100" height="25"/>
            <text class="node-label" x="50" y="17.5" text-anchor="middle">Monitor</text>
          </g>

          <g id="traced" transform="translate(0, 25)">
            <rect class="node" width="100" height="25"/>
            <text class="node-label" x="50" y="17.5" text-anchor="middle">Trace</text>
          </g>

          <g id="observed" transform="translate(0, 50)">
            <rect class="node" width="100" height="25"/>
            <text class="node-label" x="50" y="17.5" text-anchor="middle">Observe</text>
          </g>

          <g id="failureAccrual" transform="translate(0, 75)">
            <rect class="node" width="100" height="25"/>
            <text class="heavy-label node-label" x="50" y="17.5" text-anchor="middle">Failure Accrual</text>
          </g>

          <g id="requestTimeout" transform="translate(0, 100)">
            <rect class="node" width="100" height="25"/>
            <text class="node-label" x="50" y="17.5" text-anchor="middle">Request Timeout</text>
          </g>

          <g id="pool" transform="translate(0, 125)">
            <rect class="node" width="100" height="100"/>
            <text class="heavy-label node-label" x="50" y="-50" text-anchor="middle"
              transform="rotate(90)">Pool</text>
          </g>

          <g id="failFast" transform="translate(0, 225)">
            <rect class="node" width="100" height="25"/>
            <text class="heavy-label node-label" x="50" y="17.5" text-anchor="middle">Fail Fast</text>
          </g>

          <g id="transportStack" transform="translate(50, 250)">
              <line class="bridge" x1="0" x2="50" transform="rotate(45)"/>
              <rect class="shadow" width="25" height="150" transform="translate(25, 25)" />

              <line class="bridge" x1="0" x2="25" transform="rotate(90)"/>
              <g id="expiration" transform="translate(-12.5, 25)">
                <rect class="node" width="25" height="75"/>
                <text class="node-label" x="37.5" y="-8.5" transform="rotate(90)"
                  text-anchor="middle">Expiration</text>
              </g>

              <g id="dispatcher" transform="translate(-12.5, 100)">
                <rect class="node" width="25" height="75"/>
                <text class="node-label" x="37.5" y="-8.5" transform="rotate(90)"
                  text-anchor="middle">Dispatcher</text>
              </g>

              <line class="bridge" x1="0" x2="50" transform="rotate(135)"/>
              <rect class="shadow" width="25" height="150" transform="translate(-50, 25)" />
          </g>
        </g>

        <line class="bridge" x1="0" x2="150" transform="rotate(135)"/>
        <g id="endpoint2" transform="translate(-175, 75)">
          <use xlink:href="#endpointGroup"/>
        </g>
      </g>
    </g>

  </g>

</svg>
